<svg xmlns="http://www.w3.org/2000/svg" width="20" height="20" viewBox="0 0 20 20"><defs><style>.a{fill:#5a5968;}</style></defs><path class="a" d="M13.373,3.375h-.034a10,10,0,0,0,0,20h.034a10,10,0,1,0,0-20ZM22.034,12.7H18.3a18.937,18.937,0,0,0-.471-3.663,14.641,14.641,0,0,0,2.389-1.01A8.615,8.615,0,0,1,22.034,12.7Zm-9.334,0H9.729a17.093,17.093,0,0,1,.423-3.322,14.62,14.62,0,0,0,2.547.341Zm0,1.346v2.976a14.682,14.682,0,0,0-2.547.341,17.09,17.09,0,0,1-.423-3.317Zm1.346,0h2.946a16.992,16.992,0,0,1-.423,3.313,14.344,14.344,0,0,0-2.523-.337Zm0-1.346V9.721a14.682,14.682,0,0,0,2.523-.337,17.042,17.042,0,0,1,.423,3.317ZM19.3,7.034a13.351,13.351,0,0,1-1.826.745A9.928,9.928,0,0,0,16.2,5.159,8.7,8.7,0,0,1,19.3,7.034Zm-3.1,1.091a13.524,13.524,0,0,1-2.163.288V4.885A5.825,5.825,0,0,1,16.208,8.125ZM12.7,4.865V8.409a13.291,13.291,0,0,1-2.187-.293A5.822,5.822,0,0,1,12.7,4.865Zm-2.192.308a10.006,10.006,0,0,0-1.264,2.6,13.651,13.651,0,0,1-1.8-.74A8.567,8.567,0,0,1,10.508,5.173ZM6.523,8.034a14.35,14.35,0,0,0,2.365,1A18.174,18.174,0,0,0,8.417,12.7h-3.7A8.57,8.57,0,0,1,6.523,8.034ZM4.711,14.048h3.7a18.888,18.888,0,0,0,.471,3.663,15.226,15.226,0,0,0-2.365,1A8.616,8.616,0,0,1,4.711,14.048Zm2.725,5.668a13.45,13.45,0,0,1,1.807-.74,10.042,10.042,0,0,0,1.264,2.606A8.78,8.78,0,0,1,7.437,19.716Zm3.076-1.087a13.361,13.361,0,0,1,2.187-.293v3.548A5.814,5.814,0,0,1,10.513,18.63Zm3.533,3.236V18.332a13.524,13.524,0,0,1,2.163.288A5.823,5.823,0,0,1,14.046,21.865Zm2.163-.274a9.928,9.928,0,0,0,1.274-2.62,13.131,13.131,0,0,1,1.826.75A8.8,8.8,0,0,1,16.208,21.591Zm4.013-2.875a14.641,14.641,0,0,0-2.389-1.01,18.838,18.838,0,0,0,.471-3.659h3.73A8.577,8.577,0,0,1,20.222,18.716Z" transform="translate(-3.375 -3.375)"/></svg>