<svg xmlns="http://www.w3.org/2000/svg" xmlns:xlink="http://www.w3.org/1999/xlink" width="67.75" height="34" viewBox="0 0 67.75 34"><defs><style>.a{fill:rgba(0,0,0,0);}.b{fill:#fff;}.c{clip-path:url(#a);}.d{fill:url(#b);}</style><clipPath id="a"><path class="a" d="M-4952.577-848.046a10.933,10.933,0,0,0-10.8-10.931h-2.187v2.229h2.077l.143,0a4.954,4.954,0,0,1,4.8,4.951,4.953,4.953,0,0,1-4.943,4.953h-2.077v2.229h2.077a8.651,8.651,0,0,1,6.221,2.635,8.651,8.651,0,0,1-6.221,2.635h-2.077v2.229h2.077a4.953,4.953,0,0,1,4.943,4.953,4.954,4.954,0,0,1-4.8,4.951l-.143,0h-2.077v2.229h2.187a10.933,10.933,0,0,0,10.8-10.931,10.887,10.887,0,0,0-1.839-6.068A10.886,10.886,0,0,0-4952.577-848.046Zm-6.691,2.053a7.183,7.183,0,0,0,2.949-5.8,7.255,7.255,0,0,0-.124-1.336,8.667,8.667,0,0,1,1.641,5.086,8.661,8.661,0,0,1-1.118,4.267A10.925,10.925,0,0,0-4959.268-845.992Zm2.825,15.167a7.256,7.256,0,0,0,.124-1.336,7.182,7.182,0,0,0-2.949-5.8,10.923,10.923,0,0,0,3.348-2.214,8.664,8.664,0,0,1,1.118,4.267A8.667,8.667,0,0,1-4956.443-830.825Z" transform="translate(4965.564 858.978)"/></clipPath><linearGradient id="b" x1="-0.338" y1="0.895" x2="1.338" y2="0.105" gradientUnits="objectBoundingBox"><stop offset="0" stop-color="#c30"/><stop offset="1" stop-color="#f60"/></linearGradient></defs><g transform="translate(4965.564 858.979)"><g transform="translate(-4944.551 -858.979)"><g transform="translate(0 16.26)"><path class="b" d="M-3987.04-506.7l-2.584,6.077-2.762-6.077h-2.584l4.1,8.464-2.706,5.9h2.451l6.51-14.365Z" transform="translate(4028.056 510.072)"/><path class="b" d="M-4169.991-504.71a2.548,2.548,0,0,1,.8-1.963,3.853,3.853,0,0,1,2.1-.937l2.466-.375q.71-.1.71-.691a1.348,1.348,0,0,0-.454-1.056,2,2,0,0,0-1.362-.4,1.933,1.933,0,0,0-1.381.483,1.928,1.928,0,0,0-.592,1.253l-2.091-.473a3.266,3.266,0,0,1,1.243-2.22,4.24,4.24,0,0,1,2.8-.917,4.186,4.186,0,0,1,3.088,1.006,3.518,3.518,0,0,1,1,2.585v4.775a8.139,8.139,0,0,0,.119,1.539h-2.132a4.8,4.8,0,0,1-.1-1.223,3.237,3.237,0,0,1-2.959,1.519,3.27,3.27,0,0,1-2.358-.858A2.729,2.729,0,0,1-4169.991-504.71Zm3.689,1.1a2.519,2.519,0,0,0,1.727-.582,2.422,2.422,0,0,0,.661-1.9v-.434l-2.505.375q-1.285.217-1.283,1.3a1.181,1.181,0,0,0,.375.878A1.4,1.4,0,0,0-4166.3-503.6Z" transform="translate(4193.322 515.089)"/><path class="b" d="M-4250.449-554.273h-2.288v-12.984h2.288Z" transform="translate(4271.455 567.257)"/><path class="b" d="M-4453.008-505.459l1.934.612a4.288,4.288,0,0,1-1.549,2.18,4.493,4.493,0,0,1-2.792.858,4.791,4.791,0,0,1-3.482-1.4,5.007,5.007,0,0,1-1.43-3.749,4.974,4.974,0,0,1,1.392-3.63,4.446,4.446,0,0,1,3.284-1.421,4.457,4.457,0,0,1,3.453,1.352,5.166,5.166,0,0,1,1.243,3.64,2.452,2.452,0,0,1-.059.73h-7.024a2.482,2.482,0,0,0,.8,1.8,2.578,2.578,0,0,0,1.825.71A2.294,2.294,0,0,0-4453.008-505.459Zm-4.973-2.506h4.716a2.224,2.224,0,0,0-.642-1.519,2.313,2.313,0,0,0-1.726-.612,2.221,2.221,0,0,0-1.657.641A2.3,2.3,0,0,0-4457.981-507.965Z" transform="translate(4467.476 515.089)"/><path class="b" d="M-4582.94-508.766v2.328a5.06,5.06,0,0,0-.75-.059q-2.585,0-2.585,2.821v4.577h-2.288v-9.609h2.229v1.539a2.582,2.582,0,0,1,1.085-1.213,3.268,3.268,0,0,1,1.7-.444A3.113,3.113,0,0,1-4582.94-508.766Z" transform="translate(4588.563 512.082)"/></g><g transform="translate(0)"><path class="b" d="M-3901.023-774.263v5.544h-2.289v-9.609h2.229v1.282a2.89,2.89,0,0,1,1.213-1.174,3.552,3.552,0,0,1,1.628-.385,3.173,3.173,0,0,1,2.584,1.065,4.14,4.14,0,0,1,.888,2.742v6.077h-2.289V-774.4a2.382,2.382,0,0,0-.473-1.549,1.823,1.823,0,0,0-1.5-.582,1.79,1.79,0,0,0-1.47.641A2.493,2.493,0,0,0-3901.023-774.263Z" transform="translate(3941.506 783.084)"/><path class="b" d="M-4113.821-778.958a4.8,4.8,0,0,1,3.581,1.44,5.006,5.006,0,0,1,1.411,3.65,5.04,5.04,0,0,1-1.411,3.66,4.785,4.785,0,0,1-3.581,1.45,4.76,4.76,0,0,1-3.562-1.45,5.035,5.035,0,0,1-1.41-3.66,5,5,0,0,1,1.41-3.65A4.778,4.778,0,0,1-4113.821-778.958Zm-1.9,7.33a2.527,2.527,0,0,0,1.9.819,2.542,2.542,0,0,0,1.9-.809,3.109,3.109,0,0,0,.779-2.249,3.046,3.046,0,0,0-.779-2.22,2.559,2.559,0,0,0-1.9-.8,2.557,2.557,0,0,0-1.9.8,3.042,3.042,0,0,0-.779,2.22A3.113,3.113,0,0,0-4115.725-771.628Z" transform="translate(4144.977 783.418)"/><path class="b" d="M-4287.932-771.658l1.993-.552a1.733,1.733,0,0,0,.572,1.164,1.957,1.957,0,0,0,1.381.474,1.617,1.617,0,0,0,1.056-.316.981.981,0,0,0,.385-.789q0-.829-1.125-1.065l-1.42-.316a3.5,3.5,0,0,1-1.914-1.026,2.572,2.572,0,0,1-.671-1.776,2.832,2.832,0,0,1,1.026-2.18,3.627,3.627,0,0,1,2.506-.918,4.714,4.714,0,0,1,1.676.276,2.89,2.89,0,0,1,1.135.72,4.188,4.188,0,0,1,.621.858,2.546,2.546,0,0,1,.276.829l-1.933.553a1.793,1.793,0,0,0-.5-1,1.683,1.683,0,0,0-1.272-.444,1.5,1.5,0,0,0-.987.326.98.98,0,0,0-.4.779q0,.809.967,1.006l1.459.3a3.828,3.828,0,0,1,2.052,1.065,2.637,2.637,0,0,1,.71,1.855,2.92,2.92,0,0,1-.957,2.141,3.66,3.66,0,0,1-2.673.937,4.944,4.944,0,0,1-1.766-.3,3.268,3.268,0,0,1-1.223-.76,4.232,4.232,0,0,1-.691-.927A2.387,2.387,0,0,1-4287.932-771.658Z" transform="translate(4304.688 783.418)"/><g transform="translate(12.033)"><path class="b" d="M-4370.416-764.039h-2.269v-9.609h2.269Z" transform="translate(4372.685 778.404)"/><rect class="b" width="2.269" height="2.269"/></g><path class="b" d="M-4586.333-844.613h-2.229v-14.365h2.248v5.94a2.737,2.737,0,0,1,1.165-1.026,4.011,4.011,0,0,1,1.854-.414,4.018,4.018,0,0,1,3.266,1.411,5.445,5.445,0,0,1,1.173,3.6,5.4,5.4,0,0,1-1.233,3.66,4.119,4.119,0,0,1-3.285,1.431,3.179,3.179,0,0,1-2.959-1.519Zm4.449-2.614a3.243,3.243,0,0,0,.72-2.22,3.194,3.194,0,0,0-.71-2.2,2.387,2.387,0,0,0-1.875-.8,2.406,2.406,0,0,0-1.855.8,3.143,3.143,0,0,0-.729,2.2,3.226,3.226,0,0,0,.729,2.21,2.367,2.367,0,0,0,1.855.829A2.37,2.37,0,0,0-4581.884-847.227Z" transform="translate(4588.563 858.978)"/></g></g><g transform="translate(-4965.564 -858.978)"><g class="c" transform="translate(0 0)"><rect class="d" width="13.746" height="34.366" transform="translate(0 0)"/></g></g></g></svg>