<svg xmlns="http://www.w3.org/2000/svg" width="137.947" height="95.112" viewBox="0 0 137.947 95.112"><defs><style>.a,.b{fill:none;stroke:#e4e3e6;stroke-miterlimit:10;}.b{stroke-dasharray:1 2;}.c{fill:#e4e3e6;}</style></defs><g transform="translate(-817.5 -1573.517)"><path class="a" d="M917.04,1613.13v57.945l-10.472-15.655H833.475v-42.29Z" transform="translate(8.271 -4.093)"/><path class="a" d="M846.556,1569.389v57.945l10.472-15.655h73.093v-42.29Z" transform="translate(5.663 4.629)"/><path class="b" d="M872.3,1636.107a20.613,20.613,0,0,1-5.96.865H814.292l-10.477,15.654v-53.878h53.379V1615.9A21.085,21.085,0,0,0,872.3,1636.107Z" transform="translate(14.185 -1.225)"/><line class="b" x2="30.188" transform="translate(871.379 1597.522)"/><path class="b" d="M957.817,1598.747v53.878l-10.476-15.654H895.325a20.686,20.686,0,0,1-5.971-.865,21.042,21.042,0,0,0,15.084-20.18v-17.18Z" transform="translate(-2.871 -1.225)"/><circle class="c" cx="1.367" cy="1.367" r="1.367" transform="translate(874.29 1611.365)"/><circle class="c" cx="1.367" cy="1.367" r="1.367" transform="translate(879.595 1611.365)"/><circle class="c" cx="1.367" cy="1.367" r="1.367" transform="translate(884.9 1611.365)"/><circle class="c" cx="1.367" cy="1.367" r="1.367" transform="translate(890.205 1611.365)"/><circle class="c" cx="1.367" cy="1.367" r="1.367" transform="translate(895.51 1611.365)"/><circle class="c" cx="1.367" cy="1.367" r="1.367" transform="translate(884.9 1619.38)"/><line class="a" y2="5.495" transform="translate(886.267 1620.747)"/><path class="b" d="M883.046,1594.946a5.051,5.051,0,0,1,10.1,0" transform="translate(-1.613 0.54)"/><path class="b" d="M877.118,1593.764a9.8,9.8,0,1,1,19.593,0" transform="translate(-0.431 1.722)"/></g></svg>