<svg xmlns="http://www.w3.org/2000/svg" width="156.391" height="131.986" viewBox="0 0 156.391 131.986"><defs><style>.a{fill:none;stroke:#e4e3e6;stroke-miterlimit:10;}.b{fill:#e4e3e6;}.c{fill:#fff;}</style></defs><g transform="translate(-310.228 -1170.96)"><path class="a" d="M414.819,1252.977v52.782l-11.02-17.984H315.506v-51.367H398.25A16.569,16.569,0,0,1,414.819,1252.977Z" transform="translate(17.483 -4.587)"/><path class="a" d="M290.094,1222.435v58.89l11.02-17.984h56.764a26.82,26.82,0,0,0,26.82-26.82h0a24.547,24.547,0,0,0-24.547-24.547H300.556A10.462,10.462,0,0,0,290.094,1222.435Z" transform="translate(20.634 -1.557)"/><path class="a" d="M454.091,1196.823v69.352l-11.02-17.984h-66.14a17.444,17.444,0,0,1-17.443-17.443v-33.924Z" transform="translate(12.028 0.322)"/><path class="a" d="M320.883,1185.439v51.414l11.02-17.984H402v-34.18a17.188,17.188,0,0,0-17.188-17.187H338.82A17.937,17.937,0,0,0,320.883,1185.439Z" transform="translate(16.816 3.958)"/><circle class="b" cx="3.066" cy="3.066" r="3.066" transform="translate(368.45 1207.351)"/><circle class="b" cx="3.066" cy="3.066" r="3.066" transform="translate(415.752 1194.079)"/><circle class="b" cx="3.066" cy="3.066" r="3.066" transform="translate(398.859 1219.476)"/><circle class="b" cx="3.066" cy="3.066" r="3.066" transform="translate(402.266 1228.755)"/><circle class="b" cx="3.066" cy="3.066" r="3.066" transform="translate(368.45 1228.755)"/><circle class="b" cx="3.066" cy="3.066" r="3.066" transform="translate(398.859 1245.434)"/><circle class="b" cx="3.066" cy="3.066" r="3.066" transform="translate(368.45 1219.476)"/><circle class="c" cx="3.066" cy="3.066" r="3.066" transform="translate(429.236 1245.434)"/><circle class="b" cx="3.066" cy="3.066" r="3.066" transform="translate(340.054 1228.755)"/><circle class="b" cx="3.066" cy="3.066" r="3.066" transform="translate(334.633 1228.755)"/><circle class="b" cx="3.066" cy="3.066" r="3.066" transform="translate(329.923 1258.863)"/></g></svg>