<svg xmlns="http://www.w3.org/2000/svg" width="347.973" height="195.909" viewBox="0 0 347.973 195.909"><defs><style>.a,.b,.d{fill:none;}.a,.b,.d,.e{stroke:#e4e3e6;stroke-miterlimit:10;}.a{stroke-dasharray:1 4;}.c{fill:#e4e3e6;}.d{stroke-dasharray:1 3;}.e{fill:#040319;}</style></defs><g transform="translate(-720.5 -2354.589)"><path class="a" d="M815.118,2500.811a39.115,39.115,0,0,1,78.229,0" transform="translate(13.446 -14.767)"/><path class="a" d="M815.118,2500.811a24.175,24.175,0,0,1,48.35,0" transform="translate(13.446 -14.767)"/><path class="a" d="M862.619,2500.811a62.865,62.865,0,0,0-125.73,0" transform="translate(13.446 -14.767)"/><path class="a" d="M910.641,2500.811a62.865,62.865,0,0,0-125.729,0" transform="translate(13.446 -14.767)"/><path class="a" d="M862.619,2500.811a38.854,38.854,0,0,0-77.707,0" transform="translate(13.446 -14.767)"/><path class="a" d="M941.7,2500.811a39.115,39.115,0,0,0-78.229,0" transform="translate(13.446 -14.767)"/><path class="a" d="M1023.435,2500.811a65.044,65.044,0,0,0-130.088,0" transform="translate(13.446 -14.767)"/><path class="a" d="M941.7,2500.811a24.175,24.175,0,0,0-48.35,0" transform="translate(13.446 -14.767)"/><path class="a" d="M941.7,2499.074a22.437,22.437,0,1,1,44.874,0" transform="translate(13.446 -14.767)"/><path class="a" d="M986.584,2500.811a46.618,46.618,0,0,0-93.237,0" transform="translate(13.446 -14.767)"/><path class="b" d="M815.118,2499.722a39.115,39.115,0,0,0,78.229,0" transform="translate(13.446 -14.767)"/><path class="b" d="M815.118,2499.722a24.175,24.175,0,1,0,48.35,0" transform="translate(13.446 -14.767)"/><path class="b" d="M862.619,2499.722a62.865,62.865,0,0,1-125.73,0" transform="translate(13.446 -14.767)"/><path class="b" d="M910.641,2499.722a62.865,62.865,0,1,1-125.729,0" transform="translate(13.446 -14.767)"/><path class="b" d="M862.619,2499.722a38.854,38.854,0,0,1-77.707,0" transform="translate(13.446 -14.767)"/><path class="b" d="M941.7,2499.722a39.115,39.115,0,0,1-78.229,0" transform="translate(13.446 -14.767)"/><path class="b" d="M1023.435,2499.722a65.044,65.044,0,0,1-130.088,0" transform="translate(13.446 -14.767)"/><path class="b" d="M941.7,2499.722a24.175,24.175,0,1,1-48.35,0" transform="translate(13.446 -14.767)"/><path class="b" d="M986.584,2499.722a22.443,22.443,0,1,1-44.887,0" transform="translate(13.446 -14.767)"/><path class="b" d="M986.584,2499.722a46.618,46.618,0,0,1-93.237,0" transform="translate(13.446 -14.767)"/><line class="b" x2="347.473" transform="translate(721 2484.955)"/><circle class="c" cx="4.606" cy="4.606" r="4.606" transform="translate(1053.686 2490.115)"/><path class="c" d="M5.98,0H12.6a5.98,5.98,0,0,1,5.98,5.98v12.6a0,0,0,0,1,0,0H0a0,0,0,0,1,0,0V5.98A5.98,5.98,0,0,1,5.98,0Z" transform="translate(1049.001 2502.326)"/><circle class="c" cx="4.606" cy="4.606" r="4.606" transform="translate(725.685 2490.115)"/><path class="c" d="M5.98,0H12.6a5.98,5.98,0,0,1,5.98,5.98v12.6a0,0,0,0,1,0,0H0a0,0,0,0,1,0,0V5.98A5.98,5.98,0,0,1,5.98,0Z" transform="translate(721 2502.326)"/><circle class="d" cx="4.606" cy="4.606" r="4.606" transform="translate(1053.686 2448.001)"/><path class="d" d="M5.98,0H12.6a5.98,5.98,0,0,1,5.98,5.98v12.6a0,0,0,0,1,0,0H0a0,0,0,0,1,0,0V5.98A5.98,5.98,0,0,1,5.98,0Z" transform="translate(1049.001 2460.212)"/><circle class="d" cx="4.606" cy="4.606" r="4.606" transform="translate(725.685 2448.001)"/><path class="d" d="M5.98,0H12.6a5.98,5.98,0,0,1,5.98,5.98v12.6a0,0,0,0,1,0,0H0a0,0,0,0,1,0,0V5.98A5.98,5.98,0,0,1,5.98,0Z" transform="translate(721 2460.212)"/><path class="b" d="M918.212,2387.429s-16.53,18.894-36.922,18.894-36.922-18.894-36.922-18.894,16.531-18.894,36.922-18.894S918.212,2387.429,918.212,2387.429Z" transform="translate(13.446 -6.767)"/><line class="e" y1="9.561" x2="13.821" transform="translate(857.815 2355.654)"/><line class="e" x1="13.821" y1="9.561" transform="translate(917.838 2355)"/><circle class="c" cx="10.815" cy="10.815" r="10.815" transform="translate(883.922 2373.367)"/></g></svg>