<svg xmlns="http://www.w3.org/2000/svg" width="250.13" height="157.115" viewBox="0 0 250.13 157.115"><defs><style>.a{fill:#e4e3e6;}.b,.c{fill:none;}.b,.c,.d{stroke:#e4e3e6;stroke-miterlimit:10;}.c{stroke-dasharray:1 3;}</style></defs><g transform="translate(-255.5 -1973.5)"><circle class="a" cx="4.428" cy="4.428" r="4.428" transform="translate(375.956 2070.905)"/><path class="a" d="M5.98,0h5.905a5.98,5.98,0,0,1,5.98,5.98V17.865a0,0,0,0,1,0,0H0a0,0,0,0,1,0,0V5.98A5.98,5.98,0,0,1,5.98,0Z" transform="translate(371.467 2082.645)"/><path class="b" d="M376.725,2065.752a54.8,54.8,0,1,1,109.6,0" transform="translate(3.976 -0.498)"/><path class="b" d="M376.725,2066.593a33.868,33.868,0,0,1,67.737,0" transform="translate(3.976 -1.339)"/><path class="b" d="M372.008,2065.752a54.8,54.8,0,1,0-109.6,0" transform="translate(8.392 -0.498)"/><path class="b" d="M373.69,2066.593a33.868,33.868,0,0,0-67.737,0" transform="translate(6.71 -1.339)"/><line class="b" y1="55.947" transform="translate(380.399 2009.307)"/><rect class="b" width="29.605" height="29.605" transform="translate(256 2070.905)"/><rect class="b" width="29.605" height="29.605" transform="translate(297.86 2070.905)"/><rect class="b" width="29.605" height="29.605" transform="translate(475.496 2070.905)"/><path class="b" d="M268.606,2088.968l-11.267-6.505v13.01Z" transform="translate(8.588 -3.26)"/><path class="b" d="M310.276,2082.464v13.007l-4.865-4.394h-4.134v-4.22h4.134Z" transform="translate(6.89 -3.26)"/><rect class="b" width="29.605" height="29.605" transform="translate(433.635 2070.905)"/><line class="b" x2="14.407" transform="translate(440.945 2079.052)"/><line class="b" x2="14.407" transform="translate(440.945 2081.714)"/><line class="b" x2="14.407" transform="translate(440.945 2084.376)"/><line class="b" x2="14.407" transform="translate(440.945 2087.039)"/><line class="b" x2="14.407" transform="translate(440.945 2089.701)"/><line class="b" x2="7.204" transform="translate(440.945 2092.363)"/><rect class="c" width="29.605" height="29.605" transform="translate(365.582 1974)"/><path class="b" d="M375.739,1998.519v-9.683h-3.5L377.4,1977.5v9.683h3.5Z" transform="translate(4.149 0.795)"/><rect class="c" width="29.605" height="29.605" transform="translate(433.635 2100.51)"/><path class="b" d="M454.047,2126.054a14,14,0,0,1-11.158,0l-.9-.239v1.4c0,1.28,2.9,2.317,6.477,2.317s6.477-1.037,6.477-2.317v-1.4Z" transform="translate(1.454 -4.935)"/><path class="b" d="M454.047,2125.924c.556-.342.9-.734.9-1.159,0-1.28-2.9-2.318-6.477-2.318s-6.477,1.038-6.477,2.318c0,.425.342.817.9,1.159" transform="translate(1.454 -4.805)"/><path class="d" d="M450.829,2119.117a14,14,0,0,1-10.892,2.416l-.929-.038.3,1.364c.277,1.25,3.333,1.635,6.825.861s6.1-2.415,5.822-3.665l-.3-1.364Z" transform="translate(1.57 -4.66)"/><path class="b" d="M450.82,2119.03a1.53,1.53,0,0,0,.627-1.326c-.278-1.25-3.333-1.635-6.826-.86s-6.1,2.415-5.821,3.665c.092.414.51.723,1.128.937" transform="translate(1.578 -4.573)"/><path class="d" d="M453.918,2113.04a14,14,0,0,1-10.892,2.415l-.929-.038.3,1.364c.277,1.25,3.332,1.635,6.825.861s6.1-2.415,5.821-3.665l-.3-1.365Z" transform="translate(1.45 -4.425)"/><path class="b" d="M453.909,2112.953a1.528,1.528,0,0,0,.626-1.326c-.277-1.25-3.332-1.636-6.825-.861s-6.1,2.415-5.821,3.665c.091.414.51.724,1.128.938" transform="translate(1.459 -4.338)"/><rect class="c" width="29.605" height="29.605" transform="translate(475.525 2100.51)"/><path class="b" d="M497.62,2126.054a14,14,0,0,1-11.157,0l-.9-.239v1.4c0,1.28,2.9,2.317,6.477,2.317s6.477-1.037,6.477-2.317v-1.4Z" transform="translate(-0.229 -4.935)"/><path class="b" d="M497.62,2125.924c.557-.342.9-.734.9-1.159,0-1.28-2.9-2.318-6.477-2.318s-6.477,1.038-6.477,2.318c0,.425.342.817.9,1.159" transform="translate(-0.229 -4.805)"/><path class="d" d="M494.4,2119.117a14,14,0,0,1-10.893,2.416l-.929-.038.3,1.364c.277,1.25,3.333,1.635,6.825.861s6.1-2.415,5.822-3.665l-.3-1.364Z" transform="translate(-0.114 -4.66)"/><path class="b" d="M494.394,2119.03a1.531,1.531,0,0,0,.626-1.326c-.277-1.25-3.333-1.635-6.825-.86s-6.1,2.415-5.822,3.665c.092.414.51.723,1.128.937" transform="translate(-0.105 -4.573)"/><path class="d" d="M497.491,2113.04a14,14,0,0,1-10.892,2.415l-.929-.038.3,1.364c.277,1.25,3.333,1.635,6.825.861s6.1-2.415,5.821-3.665l-.3-1.365Z" transform="translate(-0.233 -4.425)"/><path class="b" d="M497.482,2112.953a1.531,1.531,0,0,0,.627-1.326c-.278-1.25-3.333-1.636-6.826-.861s-6.1,2.415-5.821,3.665c.091.414.51.724,1.128.938" transform="translate(-0.224 -4.338)"/><rect class="c" width="29.605" height="29.605" transform="translate(297.86 2100.51)"/><path class="b" d="M312.816,2126.054a14,14,0,0,1-11.157,0l-.9-.239v1.4c0,1.28,2.9,2.317,6.477,2.317s6.477-1.037,6.477-2.317v-1.4Z" transform="translate(6.91 -4.935)"/><path class="b" d="M312.816,2125.924c.557-.342.9-.734.9-1.159,0-1.28-2.9-2.318-6.477-2.318s-6.477,1.038-6.477,2.318c0,.425.342.817.9,1.159" transform="translate(6.91 -4.805)"/><path class="d" d="M309.6,2119.117a14,14,0,0,1-10.892,2.416l-.929-.038.3,1.364c.278,1.25,3.333,1.635,6.826.861s6.1-2.415,5.821-3.665l-.3-1.364Z" transform="translate(7.026 -4.66)"/><path class="b" d="M309.59,2119.03a1.529,1.529,0,0,0,.626-1.326c-.277-1.25-3.333-1.635-6.825-.86s-6.1,2.415-5.822,3.665c.092.414.511.723,1.129.937" transform="translate(7.034 -4.573)"/><path class="d" d="M312.687,2113.04a14,14,0,0,1-10.892,2.415l-.929-.038.3,1.364c.277,1.25,3.333,1.635,6.825.861s6.1-2.415,5.822-3.665l-.3-1.365Z" transform="translate(6.906 -4.425)"/><path class="b" d="M312.678,2112.953a1.532,1.532,0,0,0,.627-1.326c-.278-1.25-3.333-1.636-6.826-.861s-6.1,2.415-5.821,3.665c.092.414.51.724,1.128.938" transform="translate(6.915 -4.338)"/><rect class="c" width="29.605" height="29.605" transform="translate(256 2100.51)"/><path class="b" d="M269.273,2126.054a14,14,0,0,1-11.157,0l-.9-.239v1.4c0,1.28,2.9,2.317,6.478,2.317s6.477-1.037,6.477-2.317v-1.4Z" transform="translate(8.593 -4.935)"/><path class="b" d="M269.273,2125.924c.557-.342.9-.734.9-1.159,0-1.28-2.9-2.318-6.477-2.318s-6.478,1.038-6.478,2.318c0,.425.342.817.9,1.159" transform="translate(8.593 -4.805)"/><path class="d" d="M266.056,2119.117a14,14,0,0,1-10.892,2.416l-.929-.038.3,1.364c.277,1.25,3.332,1.635,6.825.861s6.1-2.415,5.821-3.665l-.3-1.364Z" transform="translate(8.708 -4.66)"/><path class="b" d="M266.047,2119.03a1.526,1.526,0,0,0,.626-1.326c-.277-1.25-3.333-1.635-6.825-.86s-6.1,2.415-5.821,3.665c.091.414.51.723,1.128.937" transform="translate(8.717 -4.573)"/><path class="d" d="M269.144,2113.04a14,14,0,0,1-10.892,2.415l-.929-.038.3,1.364c.277,1.25,3.333,1.635,6.825.861s6.1-2.415,5.822-3.665l-.3-1.365Z" transform="translate(8.589 -4.425)"/><path class="b" d="M269.135,2112.953a1.531,1.531,0,0,0,.627-1.326c-.277-1.25-3.333-1.636-6.825-.861s-6.1,2.415-5.822,3.665c.092.414.51.724,1.128.938" transform="translate(8.597 -4.338)"/><path class="b" d="M499.928,2086.663a4.59,4.59,0,0,1-4.58,4.592v-4.592h-4.591a4.586,4.586,0,0,1,9.171,0Z" transform="translate(-0.43 -3.246)"/><path class="b" d="M488.131,2086.662h-2.337v4.58h-4.638l4.638-9.183Z" transform="translate(-0.059 -3.245)"/><path class="b" d="M495.164,2091.438v4.592h-9.183v-4.6h4.65l-2.314-4.58h2.255A4.592,4.592,0,0,0,495.164,2091.438Z" transform="translate(-0.245 -3.43)"/></g></svg>