<?xml version="1.0" standalone="no"?>
<!DOCTYPE svg PUBLIC "-//W3C//DTD SVG 20010904//EN"
 "http://www.w3.org/TR/2001/REC-SVG-20010904/DTD/svg10.dtd">
<svg version="1.0" xmlns="http://www.w3.org/2000/svg"
 width="700.000000pt" height="700.000000pt" viewBox="0 0 700.000000 700.000000"
 preserveAspectRatio="xMidYMid meet">
<metadata>
Created by potrace 1.14, written by Peter Selinger 2001-2017
</metadata>
<g transform="translate(0.000000,700.000000) scale(0.100000,-0.100000)"
fill="#000000" stroke="none">
<path d="M2207 6892 c-2 -4 -4 -104 -3 -222 l1 -215 240 -1 c272 -1 325 -6
444 -40 254 -74 466 -245 596 -479 25 -45 71 -157 81 -195 2 -8 8 -33 13 -55
6 -22 14 -65 17 -95 52 -422 -163 -823 -541 -1012 -68 -34 -170 -71 -230 -82
-16 -4 -41 -9 -55 -12 -14 -4 -131 -8 -260 -10 -129 -1 -251 -3 -271 -3 l-36
-1 0 -220 c0 -121 3 -220 6 -221 3 0 128 -2 276 -3 239 -3 398 -11 416 -22 3
-2 20 -6 37 -9 182 -32 452 -135 575 -219 21 -14 40 -26 43 -26 12 0 192 -142
247 -194 l59 -56 -49 -46 c-86 -81 -170 -147 -303 -234 -142 -94 -442 -201
-630 -225 -30 -4 -64 -10 -75 -12 -11 -3 -146 -6 -300 -8 -154 -2 -285 -4
-291 -4 -15 -1 -15 -431 0 -436 6 -2 128 -6 271 -9 286 -5 304 -7 420 -43 221
-69 419 -218 539 -407 50 -78 82 -145 110 -232 174 -534 -126 -1101 -665
-1258 -115 -33 -173 -38 -449 -40 l-235 -1 -1 -224 0 -223 310 5 c308 5 344 8
461 28 33 6 74 13 90 16 66 11 271 75 373 117 278 114 499 262 717 481 340
340 547 748 621 1225 18 122 25 405 12 535 -14 140 -54 323 -102 470 -54 163
-164 393 -237 497 l-20 27 35 54 c168 262 280 582 320 915 23 184 10 486 -28
677 -86 430 -311 838 -632 1144 -97 92 -254 219 -314 252 -14 8 -27 17 -30 20
-16 17 -203 116 -301 158 -97 41 -244 94 -299 106 -8 2 -44 10 -80 19 -58 14
-111 23 -235 41 -61 9 -653 16 -658 7z m1944 -1367 c70 -131 139 -320 163
-445 18 -93 26 -142 31 -195 7 -65 8 -304 1 -345 -2 -14 -7 -47 -11 -75 -11
-73 -13 -88 -19 -110 -7 -31 -26 -109 -30 -120 -1 -5 -8 -29 -14 -51 -21 -72
-95 -245 -130 -302 -14 -22 -15 -22 -76 35 -129 120 -350 267 -523 348 l-81
38 50 40 c274 216 465 549 523 911 13 84 14 333 0 421 l-7 50 37 -55 c21 -30
59 -95 86 -145z m24 -2472 c59 -122 122 -300 139 -398 3 -16 8 -41 11 -55 2
-13 7 -41 10 -62 3 -21 7 -56 10 -77 8 -58 8 -244 1 -336 -6 -68 -27 -189 -50
-284 -31 -134 -136 -370 -220 -496 l-47 -70 8 60 c10 75 10 321 0 398 -6 51
-22 120 -46 212 -13 48 -56 154 -92 230 -82 171 -234 360 -390 484 l-46 37
101 49 c190 91 448 268 535 368 9 9 20 17 27 17 6 0 28 -35 49 -77z"/>
</g>
</svg>
