<svg xmlns="http://www.w3.org/2000/svg" width="41.235" height="48.09" viewBox="0 0 41.235 48.09"><defs><style>.a{fill:#5A5968;}</style></defs><path class="a" d="M8.435,20.776V33.211a2.942,2.942,0,0,1-2.953,2.975A3.205,3.205,0,0,1,2.25,33.211V20.776a3.2,3.2,0,0,1,3.232-2.953A2.965,2.965,0,0,1,8.435,20.776Zm1.16,16.859a3.171,3.171,0,0,0,3.179,3.179H14.91l.032,6.561c0,3.962,5.928,3.93,5.928,0V40.814h3.995v6.561c0,3.941,5.96,3.952,5.96,0V40.814h2.169a3.167,3.167,0,0,0,3.157-3.179V18.371H9.595V37.635ZM36.226,17.329H9.477a12.069,12.069,0,0,1,6.83-10.674L14.255,2.865a.414.414,0,1,1,.719-.408l2.083,3.823a14.508,14.508,0,0,1,11.63,0L30.76,2.467a.414.414,0,1,1,.719.408l-2.051,3.78a12.1,12.1,0,0,1,6.8,10.674ZM17.9,11.369a1.127,1.127,0,0,0-1.128-1.128,1.128,1.128,0,0,0,0,2.255A1.127,1.127,0,0,0,17.9,11.369Zm12.177,0a1.112,1.112,0,1,0-1.1,1.128A1.121,1.121,0,0,0,30.073,11.369Zm10.18,6.454A2.944,2.944,0,0,0,37.3,20.776V33.211a2.963,2.963,0,0,0,2.953,2.975,3.2,3.2,0,0,0,3.232-2.975V20.776A3.179,3.179,0,0,0,40.253,17.823Z" transform="translate(-2.25 -2.245)"/></svg>