<svg xmlns="http://www.w3.org/2000/svg" width="44.35" height="54.466" viewBox="0 0 44.35 54.466"><defs><style>.a{fill:#5A5968;}</style></defs><path class="a" d="M42.477,30.868c-.069-6.9,5.625-10.206,5.88-10.37A12.719,12.719,0,0,0,38.4,15.1c-4.241-.429-8.276,2.5-10.429,2.5s-5.469-2.434-8.986-2.37A13.326,13.326,0,0,0,7.716,22.056c-4.8,8.335-1.23,20.682,3.451,27.442,2.288,3.309,5.015,7.025,8.6,6.892,3.449-.138,4.753-2.232,8.923-2.232s5.342,2.232,8.992,2.163c3.711-.069,6.063-3.372,8.334-6.691a30.022,30.022,0,0,0,3.772-7.746,12.029,12.029,0,0,1-7.309-11.017ZM35.619,10.626a12,12,0,0,0,2.834-8.7,12.21,12.21,0,0,0-8.021,4.125c-1.763,2.041-3.306,5.3-2.892,8.427C30.6,14.718,33.716,12.927,35.619,10.626Z" transform="translate(-5.436 -1.928)"/></svg>