<svg xmlns="http://www.w3.org/2000/svg" width="74.5" height="46" viewBox="0 0 74.5 46"><defs><style>.a,.c{fill:none;stroke:#e4e3e6;stroke-width:2px;}.a{stroke-miterlimit:73.997;}.b{fill:#e4e3e6;}.c{stroke-miterlimit:10;}</style></defs><g transform="translate(-81.25 -41)"><path class="a" d="M290,280h72.5v44H290Z" transform="translate(-207.75 -238)"/><line class="a" x2="73" transform="translate(82 55.667)"/><ellipse class="b" cx="3.452" cy="3.385" rx="3.452" ry="3.385" transform="translate(85.702 45.27)"/><path class="b" d="M3.452,0A3.419,3.419,0,0,1,6.9,3.385,3.419,3.419,0,0,1,3.452,6.769,3.419,3.419,0,0,1,0,3.385,3.419,3.419,0,0,1,3.452,0Z" transform="translate(96.06 45.27)"/><ellipse class="b" cx="3.452" cy="3.385" rx="3.452" ry="3.385" transform="translate(106.417 45.27)"/><rect class="c" width="14" height="16.666" rx="0.639" transform="translate(89 62.529)"/><rect class="c" width="37.976" height="16.923" rx="1.119" transform="translate(148.307 79.231) rotate(-180)"/></g></svg>