<svg xmlns="http://www.w3.org/2000/svg" width="43.844" height="53.092" viewBox="0 0 43.844 53.092"><defs><style>.a{fill:#e4e3e6;}</style></defs><path class="a" d="M22.471,12.785c.1.052.187.176.311.176s.29-.041.3-.156c.021-.145-.2-.238-.332-.3a.685.685,0,0,0-.57-.01c-.041.021-.083.073-.062.114.031.135.238.114.353.176Zm-2.271.176c.124,0,.207-.124.311-.176s.321-.041.363-.166c.021-.041-.021-.093-.062-.114a.685.685,0,0,0-.57.01c-.135.062-.353.156-.332.3.01.1.187.156.29.145ZM43.125,41.869a5.052,5.052,0,0,1-.747-2.043A4.017,4.017,0,0,0,41.29,37.5a2.8,2.8,0,0,0-.415-.3A2.3,2.3,0,0,0,40.45,37a12.006,12.006,0,0,0-.384-8.2,27.663,27.663,0,0,0-4.821-7.714c-1.773-2.229-3.494-4.344-3.463-7.465C31.834,8.855,32.311.01,23.923,0c-10.617-.021-7.963,10.721-8.077,14.018a12.025,12.025,0,0,1-2.333,6.709A33.111,33.111,0,0,0,7.488,30.753a11.919,11.919,0,0,0-.643,5.526c-.674.6-1.182,1.524-1.721,2.094a4.452,4.452,0,0,1-1.763.861,3.208,3.208,0,0,0-1.918,1.5,2.656,2.656,0,0,0-.29,1.286,8.157,8.157,0,0,0,.124,1.223A5.37,5.37,0,0,1,1.36,45.4c-.539,1.493-.612,2.53-.228,3.287a2.784,2.784,0,0,0,2.084,1.275c1.794.373,4.23.28,6.149,1.3a8.687,8.687,0,0,0,5.8,1.078,3.758,3.758,0,0,0,2.685-2.094c1.3-.01,2.727-.56,5.008-.684,1.545-.124,3.484.55,5.713.425a3.293,3.293,0,0,0,.259.695v.01a4.158,4.158,0,0,0,4.179,2.385,7.557,7.557,0,0,0,5.008-2.893c1.41-1.7,3.733-2.406,5.278-3.339a2.507,2.507,0,0,0,1.441-1.9C44.774,44.1,44.276,43.154,43.125,41.869ZM22.772,9.052c1.016-2.3,3.546-2.26,4.562-.041a4.127,4.127,0,0,1-.446,4.189,12.823,12.823,0,0,0-1.306-.508,1.855,1.855,0,0,0,.4-.477c.5-1.223-.021-2.8-.944-2.831-.757-.052-1.441,1.12-1.223,2.385a7.386,7.386,0,0,0-1.348-.456,4.13,4.13,0,0,1,.3-2.26Zm-4.22-1.192c1.047,0,2.157,1.472,1.98,3.473a3.73,3.73,0,0,0-1.058.477c.124-.923-.342-2.084-1-2.032-.871.073-1.016,2.2-.187,2.914.1.083.2-.021-.612.57-1.618-1.514-1.089-5.4.871-5.4Zm-1.41,6.294c.643-.477,1.41-1.037,1.462-1.089A4.137,4.137,0,0,1,21.5,11.592a4.989,4.989,0,0,1,2.685.923,17.368,17.368,0,0,0,2.343.964c.871.363,1.421,1.006,1.089,1.887a3.606,3.606,0,0,1-2.354,1.877c-1.151.373-2.053,1.659-3.961,1.545a2.888,2.888,0,0,1-1-.218c-.829-.363-1.265-1.078-2.074-1.555a3.017,3.017,0,0,1-1.524-1.586,1.117,1.117,0,0,1,.435-1.275Zm.342,34.631c-.28,3.639-4.552,3.567-7.808,1.866-3.1-1.638-7.113-.674-7.932-2.271-.249-.487-.249-1.317.27-2.737v-.021a5.57,5.57,0,0,0-.062-2.478,3.491,3.491,0,0,1,.093-2.074A2.373,2.373,0,0,1,3.579,39.9a4.661,4.661,0,0,0,2.032-1.026c.57-.591.985-1.338,1.483-1.866A1.875,1.875,0,0,1,8.93,36.29,3.625,3.625,0,0,1,11.2,37.949l2.032,3.691c.985,2.063,4.469,5.018,4.251,7.144ZM17.339,46.1a22.256,22.256,0,0,0-1.493-2.032,1.688,1.688,0,0,0,1.732-.923,2.912,2.912,0,0,0-.767-2.582,15.241,15.241,0,0,0-3.971-3.37,5.6,5.6,0,0,1-2.551-3.1,7.021,7.021,0,0,1-.031-3.65,21.563,21.563,0,0,1,2.82-6.138c.238-.176.083.332-.9,2.157-.881,1.669-2.53,5.526-.27,8.544a17.907,17.907,0,0,1,1.431-6.377c1.244-2.841,3.868-7.766,4.075-11.685.114.083.477.332.643.425a12.052,12.052,0,0,1,1.306,1.068,3.8,3.8,0,0,0,4.4.124,11.437,11.437,0,0,1,1.649-.933,4.429,4.429,0,0,0,2.312-1.555,53.555,53.555,0,0,0,3.857,9.923,23.333,23.333,0,0,1,2.447,6.7,4.123,4.123,0,0,1,1.13.145c1.431-3.7-1.213-7.694-2.416-8.8-.487-.477-.508-.684-.27-.674a12.794,12.794,0,0,1,3.65,6.118,7.834,7.834,0,0,1,.041,3.7c1.7.705,3.722,1.856,3.183,3.608-.228-.01-.332,0-.435,0,.332-1.047-.4-1.825-2.364-2.706-2.032-.892-3.733-.892-3.971,1.3a3.628,3.628,0,0,0-2.219,2.831,22.888,22.888,0,0,0-.456,4.137,16.237,16.237,0,0,1-.705,3.007c-3.328,2.374-7.953,3.411-11.851.747Zm26.689-1.192c-.093,1.742-4.272,2.063-6.553,4.821a6.924,6.924,0,0,1-4.521,2.644,3.392,3.392,0,0,1-3.494-2,5.751,5.751,0,0,1,.114-3.764A25.7,25.7,0,0,0,30.6,42.4a23.334,23.334,0,0,1,.435-4.013A3.134,3.134,0,0,1,32.456,36.2c.031-.021.073-.031.1-.052.083,1.369.757,2.758,1.949,3.059,1.306.342,3.183-.778,3.982-1.69a2.935,2.935,0,0,1,2.343.529c1.026.881.736,3.142,1.773,4.313C43.706,43.559,44.058,44.378,44.027,44.907ZM17.546,15.418c.207.2.487.467.829.736a4.586,4.586,0,0,0,2.831,1.1,7.35,7.35,0,0,0,3.3-1.12,9.22,9.22,0,0,0,1.535-1.078c.4-.353.612-.653.321-.684s-.27.27-.622.529c-.456.332-1.006.767-1.441,1.016a7.065,7.065,0,0,1-3.1,1.058,4.157,4.157,0,0,1-2.582-1.006c-.321-.259-.591-.518-.8-.715-.156-.145-.2-.477-.446-.508-.145-.01-.187.384.176.674Z" transform="translate(-0.891 0)"/></svg>